HIERARCHY
ROOT SpineBase
{
  OFFSET 0.000000 0.000000 0.000000
  CHANNELS 6 Xposition Yposition Zposition Zrotation Xrotation Yrotation
  JOINT SpineMid
  {
    OFFSET -0.000000 33.620357 0.000000
    CHANNELS 3 Zrotation Xrotation Yrotation
    JOINT SpineShoulder
    {
      OFFSET -1.046760 24.490750 -1.036984
      CHANNELS 3 Zrotation Xrotation Yrotation
      JOINT Neck
      {
        OFFSET -0.411230 8.071549 -0.703731
        CHANNELS 3 Zrotation Xrotation Yrotation
        JOINT Head
        {
          OFFSET -2.373437 10.821531 7.099882
          CHANNELS 3 Zrotation Xrotation Yrotation
          End Site
          {
            OFFSET 0 0 0
          }
        }
      }
      JOINT ShoulderLeft
      {
        OFFSET -7.280074 0.433246 13.272736
        CHANNELS 3 Zrotation Xrotation Yrotation
        JOINT ElbowLeft
        {
          OFFSET 16.947588 -20.441526 5.149182
          CHANNELS 3 Zrotation Xrotation Yrotation
          JOINT WristLeft
          {
            OFFSET 15.285273 -12.956006 -19.926458
            CHANNELS 3 Zrotation Xrotation Yrotation
            JOINT HandLeft
            {
              OFFSET 5.650309 -5.574642 -4.639945
              CHANNELS 3 Zrotation Xrotation Yrotation
              JOINT HandTipLeft
              {
                OFFSET 2.746107 -3.714910 -0.103033
                CHANNELS 3 Zrotation Xrotation Yrotation
                End Site
                {
                  OFFSET 0 0 0
                }
              }
              JOINT ThumbLeft
              {
                OFFSET -3.273070 2.051953 -4.343104
                CHANNELS 3 Zrotation Xrotation Yrotation
                End Site
                {
                  OFFSET 0 0 0
                }
              }
            }
          }
        }
      }
      JOINT ShoulderRight
      {
        OFFSET 1.828879 -4.712828 -12.623561
        CHANNELS 3 Zrotation Xrotation Yrotation
        JOINT ElbowRight
        {
          OFFSET 0.844622 -26.771769 -8.369505
          CHANNELS 3 Zrotation Xrotation Yrotation
          JOINT WristRight
          {
            OFFSET -2.848362 -20.004103 -5.815722
            CHANNELS 3 Zrotation Xrotation Yrotation
            JOINT HandRight
            {
              OFFSET -0.051377 -7.845064 -0.097320
              CHANNELS 3 Zrotation Xrotation Yrotation
              JOINT HandTipRight
              {
                OFFSET -0.818146 -8.311640 0.833335
                CHANNELS 3 Zrotation Xrotation Yrotation
                End Site
                {
                  OFFSET 0 0 0
                }
              }
              JOINT ThumbRight
              {
                OFFSET 1.473364 0.080992 6.008544
                CHANNELS 3 Zrotation Xrotation Yrotation
                End Site
                {
                  OFFSET 0 0 0
                }
              }
            }
          }
        }
      }
    }
  }
  JOINT HipLeft
  {
    OFFSET -2.678936 -0.555616 1.022871
    CHANNELS 3 Zrotation Xrotation Yrotation
    JOINT KneeLeft
    {
      OFFSET 12.012723 -39.232368 0.635415
      CHANNELS 3 Zrotation Xrotation Yrotation
      JOINT AnkleLeft
      {
        OFFSET 1.380067 -29.588818 0.149337
        CHANNELS 3 Zrotation Xrotation Yrotation
        JOINT FootLeft
        {
          OFFSET -3.933531 0.402615 -15.823849
          CHANNELS 3 Zrotation Xrotation Yrotation
          End Site
          {
            OFFSET 0 0 0
          }
        }
      }
    }
  }
  JOINT HipRight
  {
    OFFSET 1.772441 2.885721 -8.434565
    CHANNELS 3 Zrotation Xrotation Yrotation
    JOINT KneeRight
    {
      OFFSET -7.210724 -40.272530 -6.751264
      CHANNELS 3 Zrotation Xrotation Yrotation
      JOINT AnkleRight
      {
        OFFSET 8.063553 -32.754460 -1.206499
        CHANNELS 3 Zrotation Xrotation Yrotation
        JOINT FootRight
        {
          OFFSET -9.489595 -3.396518 -6.534388
          CHANNELS 3 Zrotation Xrotation Yrotation
          End Site
          {
            OFFSET 0 0 0
          }
        }
      }
    }
  }
}
MOTION
Frames: 14
Frame Time: 0.033333
37.290106 75.973743 284.610609 0.000000 0.000000 64.794817 -0.000000 0.000000 -64.794817 -0.000000 0.000000 0.000000 -0.000000 0.000000 0.000000 0.000000 0.000000 0.000000 -0.000000 0.000000 0.000000 -0.000000 0.000000 0.000000 -0.000000 0.000000 0.000000 -0.000000 0.000000 0.000000 0.000000 0.000000 0.000000 0.000000 0.000000 0.000000 -0.000000 0.000000 0.000000 -0.000000 0.000000 0.000000 -0.000000 0.000000 0.000000 -0.000000 0.000000 0.000000 0.000000 0.000000 0.000000 0.000000 0.000000 0.000000 -0.000000 0.000000 -64.794817 -0.000000 0.000000 0.000000 -0.000000 0.000000 0.000000 0.000000 0.000000 0.000000 -0.000000 0.000000 -64.794817 -0.000000 0.000000 0.000000 -0.000000 0.000000 0.000000 0.000000 0.000000 0.000000
37.477232 76.058703 283.734625 0.213748 0.141362 64.991167 -0.218472 0.133946 -64.991176 -0.000000 0.000000 0.000000 -0.000000 0.000000 0.000000 0.000000 0.000000 0.000000 -0.000000 0.000000 0.000000 -0.000000 0.000000 0.000000 -0.000000 0.000000 0.000000 -0.000000 0.000000 0.000000 0.000000 0.000000 0.000000 0.000000 0.000000 0.000000 -0.000000 0.000000 0.000000 -1.961580 -0.539573 0.637244 -2.468567 -0.710237 -0.599585 1.211422 1.849785 -0.402634 0.000000 0.000000 0.000000 0.000000 0.000000 0.000000 -0.218472 0.133946 -64.991176 -0.000000 0.000000 0.000000 -0.512149 2.059278 0.005788 0.000000 0.000000 0.000000 -0.218472 0.133946 -64.991176 -0.000000 0.000000 0.000000 -2.546038 1.519810 0.631015 0.000000 0.000000 0.000000
37.662181 76.137902 282.909754 0.432256 0.269353 65.054251 -0.333941 1.140822 -65.067708 -0.076529 -0.070981 -0.040770 -0.052954 -0.661594 0.559111 0.000000 0.000000 0.000000 0.819886 -0.375975 0.054983 -0.000000 0.000000 0.000000 -0.000000 0.000000 0.000000 -0.000000 0.000000 0.000000 0.000000 0.000000 0.000000 0.000000 0.000000 0.000000 -0.528293 -0.163233 0.476725 -2.345715 -1.288948 0.750532 -5.079371 -1.274810 -1.152802 2.244109 3.442791 -0.722100 0.000000 0.000000 0.000000 0.000000 0.000000 0.000000 -0.841169 -0.473621 -65.258657 -0.688077 -0.158813 0.167084 -0.788442 4.725322 0.153322 0.000000 0.000000 0.000000 -0.879598 -1.215410 -65.066640 -1.990835 0.462681 -0.081784 -3.003216 2.798017 1.215653 0.000000 0.000000 0.000000
37.844953 76.211339 282.135995 0.655441 0.383818 64.977499 -0.468663 1.572457 -64.994378 -0.107633 -0.091707 -0.053829 -0.031085 -0.923520 0.701250 0.000000 0.000000 0.000000 1.075988 -0.531236 0.071674 -0.000000 0.000000 0.000000 -0.000000 0.000000 0.000000 -0.000000 0.000000 0.000000 0.000000 0.000000 0.000000 0.000000 0.000000 0.000000 -0.937780 -0.192802 0.698939 -3.206599 -1.962872 1.004715 -7.660188 -1.662943 -1.648579 3.045266 4.699758 -0.963531 0.000000 0.000000 0.000000 0.000000 0.000000 0.000000 -1.342885 -0.390346 -65.275177 -0.372474 -0.326496 0.240190 -1.442563 6.773062 0.369930 0.000000 0.000000 0.000000 -1.341293 -1.706950 -64.981228 -2.790143 0.719135 -0.122139 -2.877914 3.086420 1.531915 0.000000 0.000000 0.000000
38.025547 76.279016 281.413347 0.883216 0.484616 64.753819 -0.586078 1.910953 -64.771839 -0.134379 -0.102631 -0.061821 0.025551 -1.137558 0.752579 0.000000 0.000000 0.000000 1.230535 -0.665228 0.080457 -0.000000 0.000000 0.000000 -0.000000 0.000000 0.000000 -0.000000 0.000000 0.000000 0.000000 0.000000 0.000000 0.000000 0.000000 0.000000 -1.443220 -0.187740 0.911046 -3.895579 -2.659711 1.192407 -10.064541 -1.856547 -2.073011 3.591752 5.559370 -1.143182 0.000000 0.000000 0.000000 0.000000 0.000000 0.000000 -1.898718 -0.098079 -65.136090 0.384724 -0.551308 0.303293 -2.276129 8.613130 0.676389 0.000000 0.000000 0.000000 -1.810676 -2.114514 -64.737738 -3.453879 0.983415 -0.166365 -1.744434 2.706867 1.652771 0.000000 0.000000 0.000000
38.203964 76.340931 280.741812 1.115487 0.571619 64.375664 -0.687806 2.155898 -64.392419 -0.156957 -0.103748 -0.064663 0.117256 -1.303272 0.714093 0.000000 0.000000 0.000000 1.283948 -0.778251 0.080923 -0.000000 0.000000 0.000000 -0.000000 0.000000 0.000000 -0.000000 0.000000 0.000000 0.000000 0.000000 0.000000 0.000000 0.000000 0.000000 -2.044223 -0.147990 1.113638 -4.434146 -3.383383 1.322099 -12.182487 -1.849683 -2.413806 3.891876 5.984781 -1.286000 0.000000 0.000000 0.000000 0.000000 0.000000 0.000000 -2.512862 0.398242 -64.830973 1.584361 -0.832207 0.355717 -3.292387 10.248358 1.071677 0.000000 0.000000 0.000000 -2.283415 -2.434972 -64.327717 -3.978760 1.249205 -0.217569 0.541511 1.567617 1.592637 0.000000 0.000000 0.000000
39.064284 76.417694 279.981117 2.095508 0.814989 64.573815 -1.017899 2.481906 -64.572005 -0.323001 -0.027188 -0.050790 -0.129666 -1.475453 0.581170 0.000000 0.000000 0.000000 0.906797 -0.933151 0.038860 -0.000000 0.000000 0.000000 -0.000000 0.000000 0.000000 -0.000000 0.000000 0.000000 0.000000 0.000000 0.000000 0.000000 0.000000 0.000000 -3.206489 -0.040674 1.316676 -5.088616 -4.384002 1.447925 -14.345590 -1.889007 -2.818718 3.205321 6.985205 -1.355360 0.000000 0.000000 0.000000 0.000000 0.000000 0.000000 -3.584094 2.255388 -64.972385 4.174719 -1.475347 0.327377 -4.968956 11.556861 1.739818 0.000000 0.000000 0.000000 -3.867634 -1.344636 -64.253908 -3.389919 1.780745 -0.488734 5.208648 -1.220629 1.421173 0.000000 0.000000 0.000000
39.249791 76.447415 279.406836 2.260777 0.856862 63.390843 -1.008443 2.384082 -63.379295 -0.289653 -0.010047 -0.034510 -0.167175 -1.488569 0.398889 0.000000 0.000000 0.000000 0.612455 -1.012468 0.007218 -0.000000 0.000000 0.000000 -0.000000 0.000000 0.000000 -0.000000 0.000000 0.000000 0.000000 0.000000 0.000000 0.000000 0.000000 0.000000 -4.192845 0.085990 1.503538 -5.465569 -5.304000 1.494820 -15.435556 -1.465979 -3.017891 3.274103 7.213223 -1.413782 0.000000 0.000000 0.000000 0.000000 0.000000 0.000000 -4.681964 3.559174 -63.833603 7.527907 -1.759093 0.393767 -7.089014 13.019153 2.551221 0.000000 0.000000 0.000000 -4.336523 -1.511865 -62.993982 -3.560766 2.077539 -0.570844 15.331153 -7.491127 1.404993 0.000000 0.000000 0.000000
38.834142 76.395546 279.021395 1.771930 0.735823 61.729042 -0.720200 2.079480 -61.717253 -0.096719 -0.024056 -0.019749 0.497420 -1.062131 -0.006130 0.000000 0.000000 0.000000 0.497420 -1.062131 -0.006130 -0.000000 0.000000 0.000000 -0.000000 0.000000 0.000000 -0.000000 0.000000 0.000000 0.000000 0.000000 0.000000 0.000000 0.000000 0.000000 -4.909617 0.195358 1.680923 -5.516589 -5.980550 1.455254 -16.378573 -0.811182 -3.016592 3.316643 5.482904 -1.682292 0.000000 0.000000 0.000000 0.000000 0.000000 0.000000 -5.175445 4.425277 -62.150290 10.813916 -3.292131 0.413696 -9.047608 15.003349 3.465621 0.000000 0.000000 0.000000 -3.806544 -2.723268 -61.449797 -4.400036 2.095106 -0.494425 19.622597 -9.919942 1.585941 0.000000 0.000000 0.000000
37.873311 76.286809 278.857918 0.756042 0.388691 60.072225 -0.275206 1.723940 -60.074171 0.146891 -0.037452 -0.019030 1.166007 -1.589212 -0.393096 0.000000 0.000000 0.000000 0.728823 -0.972505 0.020160 -0.000000 0.000000 0.000000 -0.000000 0.000000 0.000000 -0.000000 0.000000 0.000000 0.000000 0.000000 0.000000 0.000000 0.000000 0.000000 -5.161964 0.372698 1.871025 -5.126059 -6.469459 1.326635 -16.674819 0.119576 -2.796144 4.897800 3.438828 -1.945013 0.000000 0.000000 0.000000 0.000000 0.000000 0.000000 -5.905790 3.742216 -60.857352 12.090306 -2.094857 0.582815 -9.488260 15.020892 3.597792 0.000000 0.000000 0.000000 -2.281213 -4.633212 -60.039505 -5.740872 1.851745 -0.288237 24.820081 -12.862482 1.842665 0.000000 0.000000 0.000000
36.649350 76.268556 278.769770 -0.440209 -0.048115 58.575795 0.147932 1.395531 -58.605422 0.369917 -0.014592 -0.029170 2.180123 -1.451704 -0.708611 0.000000 0.000000 0.000000 1.184939 -0.789596 0.071170 -0.000000 0.000000 0.000000 -0.000000 0.000000 0.000000 -0.000000 0.000000 0.000000 0.000000 0.000000 0.000000 0.000000 0.000000 0.000000 -5.082419 0.490565 2.052596 -4.993503 -6.851165 1.292145 -15.624306 0.642317 -2.799873 4.157645 1.228084 -2.112203 0.000000 0.000000 0.000000 0.000000 0.000000 0.000000 -6.003080 2.819216 -59.688780 12.267465 -0.740308 0.695462 -9.177606 14.769930 3.480401 0.000000 0.000000 0.000000 -0.241724 -6.737791 -58.804761 -7.321855 1.406866 -0.032133 34.772005 -18.430825 3.323220 0.000000 0.000000 0.000000
35.346085 76.315149 278.737559 -1.628142 -0.464033 57.236212 0.492302 1.115829 -57.304215 0.533070 0.008629 -0.049091 3.030349 -1.482727 -0.876309 0.000000 0.000000 0.000000 1.768193 -0.557920 0.134197 -0.000000 0.000000 0.000000 -0.000000 0.000000 0.000000 -0.000000 0.000000 0.000000 0.000000 0.000000 0.000000 0.000000 0.000000 0.000000 -4.667083 0.493610 2.174947 -4.928807 -6.789573 1.308389 -14.000018 1.177907 -2.820486 4.568363 -1.448039 -2.183936 0.000000 0.000000 0.000000 0.000000 0.000000 0.000000 -5.962509 2.389547 -58.569247 13.295743 -0.214142 0.741937 -9.359679 14.875622 3.473046 0.000000 0.000000 0.000000 1.848126 -8.774838 -57.664194 -8.852237 1.042722 0.232405 32.352750 -16.900791 2.180374 0.000000 0.000000 0.000000
34.231170 76.373497 278.623801 -2.504405 -0.816079 56.610922 0.665087 0.941832 -56.720753 0.604539 0.008254 -0.074582 3.617480 -1.412786 -0.893756 0.000000 0.000000 0.000000 2.321109 -0.256983 0.194272 -0.000000 0.000000 0.000000 -0.000000 0.000000 0.000000 -0.000000 0.000000 0.000000 0.000000 0.000000 0.000000 0.000000 0.000000 0.000000 -4.174138 0.486205 2.262569 -4.726226 -6.711334 1.320246 -13.113247 1.314080 -2.823209 4.416808 -1.536861 -2.072416 0.000000 0.000000 0.000000 0.000000 0.000000 0.000000 -5.977888 2.306169 -58.101187 14.202630 0.177144 0.765973 -9.473109 15.053557 3.461962 0.000000 0.000000 0.000000 3.336376 -10.384557 -57.145326 -9.988801 0.892070 0.412619 28.368973 -14.394241 1.033063 0.000000 0.000000 0.000000
33.322702 76.460240 278.473478 -3.037731 -1.150895 56.430962 0.665672 0.891832 -56.584252 0.583804 0.016203 -0.102533 3.771394 -1.249258 -0.658743 0.000000 0.000000 0.000000 2.828512 0.100884 0.249013 -0.000000 0.000000 0.000000 -0.000000 0.000000 0.000000 -0.000000 0.000000 0.000000 0.000000 0.000000 0.000000 0.000000 0.000000 0.000000 -3.599032 0.424439 2.302092 -4.800618 -6.484644 1.424773 -13.194673 1.426093 -2.806030 3.740792 -0.771969 -2.065361 0.000000 0.000000 0.000000 0.000000 0.000000 0.000000 -5.902541 2.451586 -57.993566 14.875197 0.384331 0.769121 -9.579083 15.220728 3.468355 0.000000 0.000000 0.000000 4.371738 -11.567019 -57.037935 -10.919025 0.805134 0.540934 21.916246 -10.163620 0.079636 0.000000 0.000000 0.000000
